<svg id="Capa_1" enable-background="new 0 0 512 512" height="512" viewBox="0 0 612 612" width="512" xmlns="http://www.w3.org/2000/svg"><g><path fill="#FFF" d="m504.5 112.21c4.142 0 7.5-3.358 7.5-7.5v-25.09c0-34.931-28.414-63.35-63.34-63.35h-385.32c-34.926 0-63.34 28.419-63.34 63.35v352.77c0 34.926 28.414 63.34 63.34 63.34h385.32c34.926 0 63.34-28.414 63.34-63.34v-297.68c0-4.142-3.358-7.5-7.5-7.5s-7.5 3.358-7.5 7.5v297.68c0 26.655-21.685 48.34-48.34 48.34h-385.32c-26.655 0-48.34-21.685-48.34-48.34v-352.77c0-26.66 21.685-48.35 48.34-48.35h385.32c26.655 0 48.34 21.69 48.34 48.35v25.09c0 4.142 3.358 7.5 7.5 7.5z"/><path fill="#FFF" d="m95.42 465.73h353.24c18.384 0 33.34-14.956 33.34-33.34v-287.19c0-21.582-17.558-39.14-39.14-39.14h-373.72c-21.582 0-39.14 17.558-39.14 39.14v287.19c0 18.384 14.956 33.34 33.34 33.34h2.12c4.142 0 7.5-3.358 7.5-7.5s-3.358-7.5-7.5-7.5h-2.12c-10.113 0-18.34-8.227-18.34-18.34v-287.19c0-13.311 10.829-24.14 24.14-24.14h212.301v329.67h-186.021c-4.142 0-7.5 3.358-7.5 7.5s3.358 7.5 7.5 7.5zm201.021-344.67h146.419c13.311 0 24.14 10.829 24.14 24.14v287.19c0 10.113-8.227 18.34-18.34 18.34h-152.219z"/><path fill="#FFF" d="m81.58 69.664c0-14.22-11.569-25.79-25.79-25.79-14.22 0-25.79 11.569-25.79 25.79s11.569 25.79 25.79 25.79c14.22 0 25.79-11.57 25.79-25.79zm-36.58 0c0-5.949 4.84-10.79 10.79-10.79s10.79 4.84 10.79 10.79-4.84 10.79-10.79 10.79-10.79-4.841-10.79-10.79z"/><path fill="#FFF" d="m139.727 69.664c0-14.22-11.569-25.79-25.79-25.79-14.22 0-25.79 11.569-25.79 25.79s11.569 25.79 25.79 25.79c14.22 0 25.79-11.57 25.79-25.79zm-36.58 0c0-5.949 4.84-10.79 10.79-10.79s10.79 4.84 10.79 10.79-4.84 10.79-10.79 10.79-10.79-4.841-10.79-10.79z"/><path fill="#FFF" d="m197.874 69.664c0-14.22-11.569-25.79-25.79-25.79-14.22 0-25.79 11.569-25.79 25.79s11.569 25.79 25.79 25.79c14.22 0 25.79-11.57 25.79-25.79zm-36.58 0c0-5.949 4.84-10.79 10.79-10.79s10.79 4.84 10.79 10.79-4.84 10.79-10.79 10.79-10.79-4.841-10.79-10.79z"/><path fill="#FFF" d="m74.452 173.727h26.83c4.142 0 7.5-3.358 7.5-7.5s-3.358-7.5-7.5-7.5h-26.83c-4.142 0-7.5 3.358-7.5 7.5s3.358 7.5 7.5 7.5z"/><path fill="#FFF" d="m256 158.727h-42.928c-4.142 0-7.5 3.358-7.5 7.5s3.358 7.5 7.5 7.5h42.928c4.142 0 7.5-3.358 7.5-7.5s-3.358-7.5-7.5-7.5z"/><path fill="#FFF" d="m191.608 158.727h-67.968c-4.142 0-7.5 3.358-7.5 7.5s3.358 7.5 7.5 7.5h67.968c4.142 0 7.5-3.358 7.5-7.5s-3.358-7.5-7.5-7.5z"/><path fill="#FFF" d="m74.452 215.627h70.651c4.142 0 7.5-3.358 7.5-7.5s-3.358-7.5-7.5-7.5h-70.651c-4.142 0-7.5 3.358-7.5 7.5s3.358 7.5 7.5 7.5z"/><path fill="#FFF" d="m256 200.627h-21.464c-4.142 0-7.5 3.358-7.5 7.5s3.358 7.5 7.5 7.5h21.464c4.142 0 7.5-3.358 7.5-7.5s-3.358-7.5-7.5-7.5z"/><path fill="#FFF" d="m159.962 208.127c0 4.142 3.358 7.5 7.5 7.5h45.61c4.142 0 7.5-3.358 7.5-7.5s-3.358-7.5-7.5-7.5h-45.61c-4.142 0-7.5 3.358-7.5 7.5z"/><path fill="#FFF" d="m74.452 257.527h26.83c4.142 0 7.5-3.358 7.5-7.5s-3.358-7.5-7.5-7.5h-26.83c-4.142 0-7.5 3.358-7.5 7.5s3.358 7.5 7.5 7.5z"/><path fill="#FFF" d="m256 242.527h-42.928c-4.142 0-7.5 3.358-7.5 7.5s3.358 7.5 7.5 7.5h42.928c4.142 0 7.5-3.358 7.5-7.5s-3.358-7.5-7.5-7.5z"/><path fill="#FFF" d="m191.608 257.527c4.142 0 7.5-3.358 7.5-7.5s-3.358-7.5-7.5-7.5h-67.968c-4.142 0-7.5 3.358-7.5 7.5s3.358 7.5 7.5 7.5z"/><path fill="#FFF" d="m74.452 299.428h16.098c4.142 0 7.5-3.358 7.5-7.5s-3.358-7.5-7.5-7.5h-16.098c-4.142 0-7.5 3.358-7.5 7.5s3.358 7.5 7.5 7.5z"/><path fill="#FFF" d="m256 284.428h-84.066c-4.142 0-7.5 3.358-7.5 7.5s3.358 7.5 7.5 7.5h84.066c4.142 0 7.5-3.358 7.5-7.5s-3.358-7.5-7.5-7.5z"/><path fill="#FFF" d="m105.408 291.928c0 4.142 3.358 7.5 7.5 7.5h37.562c4.142 0 7.5-3.358 7.5-7.5s-3.358-7.5-7.5-7.5h-37.562c-4.142 0-7.5 3.358-7.5 7.5z"/><path fill="#FFF" d="m74.452 341.328h13.415c4.142 0 7.5-3.358 7.5-7.5s-3.358-7.5-7.5-7.5h-13.415c-4.142 0-7.5 3.358-7.5 7.5s3.358 7.5 7.5 7.5z"/><path fill="#FFF" d="m256 326.328h-21.464c-4.142 0-7.5 3.358-7.5 7.5s3.358 7.5 7.5 7.5h21.464c4.142 0 7.5-3.358 7.5-7.5s-3.358-7.5-7.5-7.5z"/><path fill="#FFF" d="m102.725 333.828c0 4.142 3.358 7.5 7.5 7.5h102.847c4.142 0 7.5-3.358 7.5-7.5s-3.358-7.5-7.5-7.5h-102.847c-4.142 0-7.5 3.358-7.5 7.5z"/><path fill="#FFF" d="m355.311 251.448c-2.929-2.929-7.678-2.929-10.606 0l-29.143 29.143c-1.407 1.406-2.197 3.314-2.197 5.303s.79 3.897 2.197 5.303l29.143 29.142c1.464 1.464 3.384 2.197 5.303 2.197s3.839-.732 5.303-2.197c2.929-2.929 2.929-7.678 0-10.606l-23.839-23.839 23.839-23.839c2.929-2.929 2.929-7.678 0-10.607z"/><path fill="#FFF" d="m417.168 251.448c-2.929-2.929-7.678-2.929-10.606 0-2.929 2.929-2.929 7.678 0 10.606l23.839 23.839-23.839 23.839c-2.929 2.929-2.929 7.678 0 10.606 1.464 1.465 3.384 2.197 5.303 2.197s3.839-.732 5.303-2.197l29.143-29.142c1.407-1.406 2.197-3.314 2.197-5.303s-.79-3.897-2.197-5.303z"/><path fill="#FFF" d="m392.505 232.704c-4.039-.926-8.061 1.6-8.984 5.638l-20.996 91.759c-.924 4.038 1.601 8.06 5.638 8.984.563.129 1.125.19 1.68.19 3.419 0 6.509-2.354 7.304-5.829l20.996-91.759c.924-4.037-1.6-8.06-5.638-8.983z"/></g></svg>